<mxfile host="app.diagrams.net" modified="2020-05-25T18:39:03.717Z" agent="5.0 (Windows)" etag="6uX19CRWni6T6nte8zRE" version="13.1.3" type="github">
  <diagram id="prtHgNgQTEPvFCAcTncT" name="Page-1">
    <mxGraphModel dx="2942" dy="1151" grid="1" gridSize="10" guides="1" tooltips="1" connect="1" arrows="1" fold="1" page="1" pageScale="1" pageWidth="20000" pageHeight="20000" math="0" shadow="0">
      <root>
        <mxCell id="0" />
        <mxCell id="1" parent="0" />
        <mxCell id="iwIeH2vhxbRKVqMzfGo0-2" value="&lt;font style=&quot;font-size: 20px&quot;&gt;Tutor 1&lt;/font&gt;" style="rounded=0;whiteSpace=wrap;html=1;fillColor=#fff2cc;strokeColor=#d6b656;" parent="1" vertex="1">
          <mxGeometry x="160" y="60" width="120" height="60" as="geometry" />
        </mxCell>
        <mxCell id="iwIeH2vhxbRKVqMzfGo0-3" value="&lt;font style=&quot;font-size: 20px&quot;&gt;Tutor 2&lt;br&gt;&lt;/font&gt;" style="rounded=0;whiteSpace=wrap;html=1;fillColor=#fff2cc;strokeColor=#d6b656;" parent="1" vertex="1">
          <mxGeometry x="360" y="60" width="120" height="60" as="geometry" />
        </mxCell>
        <mxCell id="iwIeH2vhxbRKVqMzfGo0-4" value="&lt;font style=&quot;font-size: 20px&quot;&gt;Tutor 4&lt;br&gt;&lt;/font&gt;" style="rounded=0;whiteSpace=wrap;html=1;fillColor=#fff2cc;strokeColor=#d6b656;" parent="1" vertex="1">
          <mxGeometry x="760" y="60" width="120" height="60" as="geometry" />
        </mxCell>
        <mxCell id="iwIeH2vhxbRKVqMzfGo0-5" value="&lt;font style=&quot;font-size: 20px&quot;&gt;Tutor 3&lt;br&gt;&lt;/font&gt;" style="rounded=0;whiteSpace=wrap;html=1;fillColor=#fff2cc;strokeColor=#d6b656;" parent="1" vertex="1">
          <mxGeometry x="560" y="60" width="120" height="60" as="geometry" />
        </mxCell>
        <mxCell id="iwIeH2vhxbRKVqMzfGo0-6" value="&lt;font style=&quot;font-size: 20px&quot;&gt;Tutor 5&lt;br&gt;&lt;/font&gt;" style="rounded=0;whiteSpace=wrap;html=1;fillColor=#fff2cc;strokeColor=#d6b656;" parent="1" vertex="1">
          <mxGeometry x="960" y="60" width="120" height="60" as="geometry" />
        </mxCell>
        <mxCell id="iwIeH2vhxbRKVqMzfGo0-7" value="&lt;font style=&quot;font-size: 20px&quot;&gt;Tutor 6&lt;br&gt;&lt;/font&gt;" style="rounded=0;whiteSpace=wrap;html=1;fillColor=#fff2cc;strokeColor=#d6b656;" parent="1" vertex="1">
          <mxGeometry x="1160" y="60" width="120" height="60" as="geometry" />
        </mxCell>
        <mxCell id="iwIeH2vhxbRKVqMzfGo0-8" value="&lt;font style=&quot;font-size: 20px&quot;&gt;Tutor 7&lt;br&gt;&lt;/font&gt;" style="rounded=0;whiteSpace=wrap;html=1;fillColor=#fff2cc;strokeColor=#d6b656;" parent="1" vertex="1">
          <mxGeometry x="1360" y="60" width="120" height="60" as="geometry" />
        </mxCell>
        <mxCell id="iwIeH2vhxbRKVqMzfGo0-9" value="&lt;font style=&quot;font-size: 30px&quot;&gt;1&lt;/font&gt;" style="shape=card;whiteSpace=wrap;html=1;fillColor=#f8cecc;strokeColor=#b85450;" parent="1" vertex="1">
          <mxGeometry x="190" y="150" width="60" height="80" as="geometry" />
        </mxCell>
        <mxCell id="iwIeH2vhxbRKVqMzfGo0-10" value="&lt;font style=&quot;font-size: 30px&quot;&gt;3&lt;/font&gt;" style="shape=card;whiteSpace=wrap;html=1;fillColor=#f8cecc;strokeColor=#b85450;" parent="1" vertex="1">
          <mxGeometry x="1800" y="150" width="60" height="80" as="geometry" />
        </mxCell>
        <mxCell id="iwIeH2vhxbRKVqMzfGo0-11" value="&lt;font style=&quot;font-size: 30px&quot;&gt;6&lt;/font&gt;" style="shape=card;whiteSpace=wrap;html=1;fillColor=#f8cecc;strokeColor=#b85450;" parent="1" vertex="1">
          <mxGeometry x="1800" y="250" width="60" height="80" as="geometry" />
        </mxCell>
        <mxCell id="iwIeH2vhxbRKVqMzfGo0-12" value="&lt;font style=&quot;font-size: 30px&quot;&gt;9&lt;/font&gt;" style="shape=card;whiteSpace=wrap;html=1;fillColor=#f8cecc;strokeColor=#b85450;" parent="1" vertex="1">
          <mxGeometry x="1800" y="350" width="60" height="80" as="geometry" />
        </mxCell>
        <mxCell id="iwIeH2vhxbRKVqMzfGo0-13" value="&lt;font style=&quot;font-size: 30px&quot;&gt;12&lt;/font&gt;" style="shape=card;whiteSpace=wrap;html=1;fillColor=#f8cecc;strokeColor=#b85450;" parent="1" vertex="1">
          <mxGeometry x="1800" y="450" width="60" height="80" as="geometry" />
        </mxCell>
        <mxCell id="iwIeH2vhxbRKVqMzfGo0-14" value="&lt;font style=&quot;font-size: 30px&quot;&gt;15&lt;/font&gt;" style="shape=card;whiteSpace=wrap;html=1;fillColor=#f8cecc;strokeColor=#b85450;" parent="1" vertex="1">
          <mxGeometry x="1800" y="550" width="60" height="80" as="geometry" />
        </mxCell>
        <mxCell id="iwIeH2vhxbRKVqMzfGo0-15" value="&lt;font style=&quot;font-size: 30px&quot;&gt;5&lt;/font&gt;" style="shape=card;whiteSpace=wrap;html=1;fillColor=#f8cecc;strokeColor=#b85450;" parent="1" vertex="1">
          <mxGeometry x="1720" y="250" width="60" height="80" as="geometry" />
        </mxCell>
        <mxCell id="iwIeH2vhxbRKVqMzfGo0-16" value="&lt;font style=&quot;font-size: 30px&quot;&gt;8&lt;/font&gt;" style="shape=card;whiteSpace=wrap;html=1;fillColor=#f8cecc;strokeColor=#b85450;" parent="1" vertex="1">
          <mxGeometry x="1720" y="350" width="60" height="80" as="geometry" />
        </mxCell>
        <mxCell id="iwIeH2vhxbRKVqMzfGo0-17" value="&lt;font style=&quot;font-size: 30px&quot;&gt;11&lt;/font&gt;" style="shape=card;whiteSpace=wrap;html=1;fillColor=#f8cecc;strokeColor=#b85450;" parent="1" vertex="1">
          <mxGeometry x="1720" y="450" width="60" height="80" as="geometry" />
        </mxCell>
        <mxCell id="iwIeH2vhxbRKVqMzfGo0-18" value="&lt;font style=&quot;font-size: 30px&quot;&gt;14&lt;/font&gt;" style="shape=card;whiteSpace=wrap;html=1;fillColor=#f8cecc;strokeColor=#b85450;" parent="1" vertex="1">
          <mxGeometry x="1720" y="550" width="60" height="80" as="geometry" />
        </mxCell>
        <mxCell id="iwIeH2vhxbRKVqMzfGo0-19" value="&lt;font style=&quot;font-size: 30px&quot;&gt;4&lt;/font&gt;" style="shape=card;whiteSpace=wrap;html=1;fillColor=#f8cecc;strokeColor=#b85450;" parent="1" vertex="1">
          <mxGeometry x="1640" y="250" width="60" height="80" as="geometry" />
        </mxCell>
        <mxCell id="iwIeH2vhxbRKVqMzfGo0-20" value="&lt;font style=&quot;font-size: 30px&quot;&gt;7&lt;/font&gt;" style="shape=card;whiteSpace=wrap;html=1;fillColor=#f8cecc;strokeColor=#b85450;" parent="1" vertex="1">
          <mxGeometry x="1640" y="350" width="60" height="80" as="geometry" />
        </mxCell>
        <mxCell id="iwIeH2vhxbRKVqMzfGo0-21" value="&lt;font style=&quot;font-size: 30px&quot;&gt;10&lt;/font&gt;" style="shape=card;whiteSpace=wrap;html=1;fillColor=#f8cecc;strokeColor=#b85450;" parent="1" vertex="1">
          <mxGeometry x="1640" y="450" width="60" height="80" as="geometry" />
        </mxCell>
        <mxCell id="iwIeH2vhxbRKVqMzfGo0-22" value="&lt;font style=&quot;font-size: 30px&quot;&gt;13&lt;/font&gt;" style="shape=card;whiteSpace=wrap;html=1;fillColor=#f8cecc;strokeColor=#b85450;" parent="1" vertex="1">
          <mxGeometry x="1640" y="550" width="60" height="80" as="geometry" />
        </mxCell>
        <mxCell id="iwIeH2vhxbRKVqMzfGo0-23" value="&lt;font style=&quot;font-size: 30px&quot;&gt;2&lt;/font&gt;" style="shape=card;whiteSpace=wrap;html=1;fillColor=#f8cecc;strokeColor=#b85450;" parent="1" vertex="1">
          <mxGeometry x="1720" y="150" width="60" height="80" as="geometry" />
        </mxCell>
      </root>
    </mxGraphModel>
  </diagram>
</mxfile>
